<svg width="35" height="45" viewBox="0 0 35 45" fill="none" xmlns="http://www.w3.org/2000/svg">
<g clip-path="url(#clip0_128_1059)">
<path d="M1.64355 0H25.6816C26.332 0.0703125 26.877 0.650391 26.8682 1.30957C26.877 12.6211 26.8682 23.9326 26.8682 35.2441C26.8594 35.6045 26.9121 36 26.7363 36.334C26.5166 36.8174 25.9893 37.1162 25.4619 37.0898C17.5781 37.0898 9.69434 37.0898 1.81055 37.0898C1.10742 37.0986 0.483398 36.4746 0.500977 35.7803C0.500977 24.4688 0.500977 13.1572 0.500977 1.8457C0.509766 1.47656 0.457031 1.08984 0.632813 0.74707C0.817383 0.351563 1.22168 0.0878906 1.64355 0ZM5.53711 6.70606C4.79883 6.8291 4.28027 7.65527 4.51758 8.37598C4.66699 8.9209 5.21191 9.3252 5.77441 9.31641C8.41113 9.31641 11.0479 9.31641 13.6846 9.31641C14.3877 9.33399 15.0117 8.70117 15.0029 7.99805C15.0205 7.29492 14.3877 6.66211 13.6846 6.67969C11.0742 6.67969 8.47266 6.67969 5.86231 6.67969C5.75684 6.67969 5.64258 6.68848 5.53711 6.70606ZM5.52832 11.9795C4.86035 12.0938 4.35938 12.7881 4.47363 13.4561C4.55273 14.0889 5.1416 14.5986 5.77441 14.5898C10.8984 14.5898 16.0313 14.5898 21.1553 14.5898C21.4717 14.5898 21.8057 14.6162 22.1045 14.4844C22.7109 14.2471 23.0625 13.5176 22.8604 12.9023C22.7109 12.3574 22.166 11.9531 21.5947 11.9619C16.4707 11.9619 11.3379 11.9619 6.21387 11.9619C5.98535 11.9531 5.75684 11.9443 5.52832 11.9795ZM5.52832 17.2529C4.76367 17.3848 4.24512 18.2637 4.53516 18.9844C4.71094 19.5029 5.22949 19.8633 5.77441 19.8633C11.0215 19.8633 16.2686 19.8633 21.5068 19.8633C21.9639 19.8809 22.4297 19.6611 22.6846 19.2832C22.9746 18.8701 22.9834 18.2988 22.7197 17.8682C22.4736 17.4463 21.9902 17.209 21.5068 17.2266C16.4355 17.2266 11.3643 17.2266 6.30176 17.2266C6.04688 17.2266 5.7832 17.209 5.52832 17.2529ZM5.52832 22.5264C4.86035 22.6406 4.35938 23.335 4.47363 24.0117C4.55273 24.6445 5.1416 25.1455 5.77441 25.1367C11.0215 25.1367 16.2598 25.1367 21.5068 25.1367C22.0342 25.1631 22.5615 24.8643 22.7813 24.3809C23.0361 23.8711 22.8955 23.2119 22.4736 22.8428C22.1924 22.5791 21.7969 22.4736 21.4189 22.5C16.3828 22.5 11.3379 22.5 6.30176 22.5C6.04688 22.5 5.7832 22.4824 5.52832 22.5264ZM16.0752 27.7998C15.4072 27.9141 14.9063 28.6084 15.0205 29.2764C15.0996 29.9092 15.6885 30.4189 16.3301 30.4102C18.0527 30.4102 19.7842 30.4102 21.5068 30.4102C22.2451 30.4629 22.9307 29.8301 22.9219 29.0918C22.9307 28.3975 22.3154 27.7647 21.6123 27.7734C19.9072 27.7734 18.2109 27.7734 16.5059 27.7734C16.3564 27.7734 16.2158 27.7734 16.0752 27.7998Z" fill="#F6F6F7"/>
<path d="M29.5068 7.99619C30.8252 7.99619 32.1523 7.99619 33.4707 7.99619C34.165 7.9874 34.7891 8.61142 34.7803 9.30576C34.7891 20.7403 34.7803 32.1661 34.7803 43.6007C34.8242 44.2862 34.2793 44.919 33.6025 44.9981H9.6084C8.95801 44.9278 8.41309 44.3477 8.42188 43.6886C8.41309 42.3702 8.42188 41.0518 8.42188 39.7247C14.0469 39.7247 19.6719 39.7247 25.2969 39.7247C25.8857 39.7335 26.4834 39.6632 27.0283 39.4347C28.4961 38.8634 29.5332 37.3429 29.5156 35.7608C29.5156 26.5059 29.5068 17.2511 29.5068 7.99619Z" fill="url(#paint0_linear_128_1059)"/>
</g>
<defs>
<linearGradient id="paint0_linear_128_1059" x1="21.6011" y1="7.99609" x2="21.6011" y2="44.9981" gradientUnits="userSpaceOnUse">
<stop stop-color="#8AF1FF"/>
<stop offset="1" stop-color="#3FF946"/>
</linearGradient>
<clipPath id="clip0_128_1059">
<rect width="34.2861" height="45" fill="white" transform="translate(0.5)"/>
</clipPath>
</defs>
</svg>
