<svg width="54" height="45" viewBox="0 0 54 45" fill="none" xmlns="http://www.w3.org/2000/svg">
<path d="M25.854 2.08023C27.4782 1.85361 29.1684 2.10856 30.6415 2.82622C32.6056 3.76106 34.1731 5.48909 34.9097 7.53818C35.8445 10.0689 35.4385 13.0622 33.8426 15.2435C32.4262 17.2737 30.0561 18.6052 27.582 18.7468C25.1175 18.9357 22.6057 17.9347 20.9248 16.1312C19.8295 14.9791 19.0741 13.506 18.7908 11.9385C18.3942 9.91778 18.7908 7.75537 19.8767 6.00845C21.1609 3.89326 23.4083 2.40129 25.854 2.08023Z" fill="white"/>
<path d="M11.463 9.87031C12.87 9.68145 14.343 9.99307 15.5612 10.739C16.7226 11.4473 17.6386 12.5426 18.1391 13.8174C18.6679 15.1677 18.7056 16.6975 18.2429 18.0667C17.6103 20.0025 15.9672 21.57 14.0031 22.1271C12.5206 22.552 10.8775 22.4009 9.49887 21.7116C8.14855 21.0412 7.06263 19.8703 6.49606 18.4822C5.94837 17.1696 5.87283 15.6588 6.28831 14.299C6.94931 11.9666 9.0645 10.1536 11.463 9.87031Z" fill="#8AF1FF"/>
<path d="M41.0102 9.86007C42.37 9.69954 43.7864 9.98282 44.9668 10.691C46.1566 11.3992 47.1103 12.5135 47.6108 13.8072C48.1868 15.2708 48.1868 16.9516 47.5919 18.4058C47.0348 19.8317 45.9299 21.0215 44.5607 21.7014C43.5598 22.2113 42.4078 22.419 41.2935 22.3435C39.3105 22.2113 37.4408 21.0404 36.421 19.3407C35.0801 17.2444 35.2218 14.3454 36.7232 12.3719C37.7241 10.9838 39.3105 10.0584 41.0102 9.86007Z" fill="#8AF1FF"/>
<path d="M22.0282 20.533C22.6798 20.4763 23.3408 20.4952 23.9923 20.4952C26.4191 20.4952 28.8365 20.4952 31.2633 20.4952C32.9441 20.4858 34.6155 21.109 35.8809 22.2232C37.0707 23.262 37.9016 24.7067 38.1566 26.2648C38.2982 27.0108 38.2604 27.7756 38.2699 28.5405C38.2699 32.8842 38.2699 37.2184 38.2699 41.5621C38.2888 42.1004 37.9677 42.6386 37.4673 42.8653C37.1273 43.0352 36.7307 42.9975 36.3624 43.0069C29.9696 43.0069 23.5863 43.0069 17.1935 43.0069C16.4192 43.0447 15.7204 42.3459 15.7676 41.5716C15.7676 36.888 15.7676 32.1949 15.7676 27.5112C15.7676 25.9909 16.2681 24.4706 17.1935 23.262C18.3455 21.7322 20.1397 20.7218 22.0282 20.533Z" fill="white"/>
<path d="M5.1176 25.9782C6.34516 24.8356 7.98821 24.1746 9.65959 24.1368C10.9627 24.1179 12.2658 24.1274 13.5689 24.1274C13.1534 25.2983 12.9646 26.5353 12.974 27.7817C12.974 31.9082 12.974 36.0253 12.974 40.1518C12.9835 41.1056 12.8985 42.0782 13.2101 42.9941C11.5765 42.9941 9.95232 42.9941 8.31871 42.9941C7.62939 42.9847 6.94006 43.0224 6.25073 42.9091C5.46698 42.758 4.73988 42.3898 4.15443 41.8421C3.35179 41.0867 2.89853 39.9913 2.85132 38.8771V30.9356C2.90798 29.066 3.7295 27.234 5.1176 25.9782Z" fill="#8AF1FF"/>
<path d="M40.4802 24.1292C41.6322 24.1198 42.7843 24.1292 43.9269 24.1292C44.6256 24.1292 45.3338 24.1859 46.0043 24.3653C47.5246 24.7619 48.8938 25.7061 49.8286 26.9715C50.6785 28.1141 51.1506 29.5116 51.1884 30.9375V38.8789C51.1412 39.5116 51.0184 40.1537 50.7162 40.7202C50.1308 41.8723 48.9788 42.7221 47.704 42.9299C47.043 43.0337 46.382 42.996 45.7115 43.0054C44.0779 43.0054 42.4538 43.0054 40.8202 43.0054C40.9807 42.486 41.0657 41.9384 41.0562 41.3907C41.0562 36.792 41.0562 32.1934 41.0562 27.6042C41.0751 26.4144 40.8674 25.2434 40.4802 24.1292Z" fill="#8AF1FF"/>
</svg>
