<svg width="24" height="24" viewBox="0 0 24 24" fill="none" xmlns="http://www.w3.org/2000/svg">
<g clip-path="url(#clip0_240_347)">
<path d="M5.14118 11.9994V7.49084C5.15457 6.60461 5.3427 5.72973 5.69479 4.91633C6.04688 4.10293 6.55601 3.367 7.19301 2.7507C7.83001 2.13441 8.58235 1.64986 9.40694 1.32483C10.2315 0.999794 11.1121 0.840663 11.9983 0.856551C12.8845 0.840663 13.7651 0.999794 14.5897 1.32483C15.4143 1.64986 16.1666 2.13441 16.8036 2.7507C17.4406 3.367 17.9498 4.10293 18.3019 4.91633C18.654 5.72973 18.8421 6.60461 18.8555 7.49084V11.9994M15.4269 20.9994C16.3362 20.9994 17.2083 20.6382 17.8513 19.9952C18.4942 19.3522 18.8555 18.4802 18.8555 17.5708V13.7137M15.4269 20.9994C15.4269 21.5677 15.2011 22.1128 14.7993 22.5146C14.3974 22.9165 13.8524 23.1423 13.284 23.1423H10.7126C10.1443 23.1423 9.59925 22.9165 9.19738 22.5146C8.79552 22.1128 8.56975 21.5677 8.56975 20.9994C8.56975 20.4311 8.79552 19.886 9.19738 19.4842C9.59925 19.0823 10.1443 18.8566 10.7126 18.8566H13.284C13.8524 18.8566 14.3974 19.0823 14.7993 19.4842C15.2011 19.886 15.4269 20.4311 15.4269 20.9994ZM2.56975 9.42798H4.28404C4.51137 9.42798 4.72939 9.51829 4.89013 9.67903C5.05088 9.83978 5.14118 10.0578 5.14118 10.2851V15.428C5.14118 15.6553 5.05088 15.8733 4.89013 16.0341C4.72939 16.1948 4.51137 16.2851 4.28404 16.2851H2.56975C2.1151 16.2851 1.67906 16.1045 1.35757 15.783C1.03608 15.4615 0.855469 15.0255 0.855469 14.5708V11.1423C0.855469 10.6876 1.03608 10.2516 1.35757 9.93008C1.67906 9.60859 2.1151 9.42798 2.56975 9.42798ZM21.4269 16.2851H19.7126C19.4853 16.2851 19.2673 16.1948 19.1065 16.0341C18.9458 15.8733 18.8555 15.6553 18.8555 15.428V10.2851C18.8555 10.0578 18.9458 9.83978 19.1065 9.67903C19.2673 9.51829 19.4853 9.42798 19.7126 9.42798H21.4269C21.8816 9.42798 22.3176 9.60859 22.6391 9.93008C22.9606 10.2516 23.1412 10.6876 23.1412 11.1423V14.5708C23.1412 15.0255 22.9606 15.4615 22.6391 15.783C22.3176 16.1045 21.8816 16.2851 21.4269 16.2851Z" stroke="white" stroke-linecap="round" stroke-linejoin="round"/>
</g>
<defs>
<clipPath id="clip0_240_347">
<rect width="24" height="24" fill="white"/>
</clipPath>
</defs>
</svg>
