<svg width="68" height="68" viewBox="0 0 68 68" fill="none" xmlns="http://www.w3.org/2000/svg">
<rect width="68" height="68" rx="20" fill="#262827"/>
<g clip-path="url(#clip0_161_365)">
<path opacity="0.4" d="M43.7177 13H24.3708C17.3205 13 13.3259 16.9946 13.3259 24.0448V43.3733C13.3259 50.4237 17.3205 54.4183 24.3708 54.4183H43.7177C50.768 54.4183 54.7441 50.4237 54.7441 43.3733V24.0448C54.7441 16.9946 50.768 13 43.7177 13Z" fill="white" fill-opacity="0.64"/>
<path d="M24.4439 28.2607C23.5051 28.2607 22.7319 29.0338 22.7319 29.991V44.2205C22.7319 45.1594 23.5051 45.9325 24.4439 45.9325C25.4011 45.9325 26.1743 45.1594 26.1743 44.2205V29.991C26.1743 29.0338 25.4011 28.2607 24.4439 28.2607Z" fill="url(#paint0_linear_161_365)"/>
<path d="M34.1084 21.4678C33.1696 21.4678 32.3965 22.2409 32.3965 23.1982V44.2201C32.3965 45.159 33.1696 45.9322 34.1084 45.9322C35.0656 45.9322 35.8387 45.159 35.8387 44.2201V23.1982C35.8387 22.2409 35.0656 21.4678 34.1084 21.4678Z" fill="url(#paint1_linear_161_365)"/>
<path d="M43.6437 35.7705C42.6865 35.7705 41.9133 36.5437 41.9133 37.5009V44.2198C41.9133 45.1587 42.6865 45.9318 43.6253 45.9318C44.5825 45.9318 45.3557 45.1587 45.3557 44.2198V37.5009C45.3557 36.5437 44.5825 35.7705 43.6437 35.7705Z" fill="url(#paint2_linear_161_365)"/>
</g>
<defs>
<linearGradient id="paint0_linear_161_365" x1="22.4221" y1="28.2607" x2="29.0629" y2="29.5352" gradientUnits="userSpaceOnUse">
<stop stop-color="#53C9D7"/>
<stop offset="1" stop-color="#38F839"/>
</linearGradient>
<linearGradient id="paint1_linear_161_365" x1="32.0867" y1="21.4678" x2="38.8421" y2="22.4042" gradientUnits="userSpaceOnUse">
<stop stop-color="#53C9D7"/>
<stop offset="1" stop-color="#38F839"/>
</linearGradient>
<linearGradient id="paint2_linear_161_365" x1="41.6035" y1="35.7705" x2="47.7988" y2="37.8383" gradientUnits="userSpaceOnUse">
<stop stop-color="#53C9D7"/>
<stop offset="1" stop-color="#38F839"/>
</linearGradient>
<clipPath id="clip0_161_365">
<rect width="42" height="42" fill="white" transform="translate(13 13)"/>
</clipPath>
</defs>
</svg>
