<svg width="68" height="68" viewBox="0 0 68 68" fill="none" xmlns="http://www.w3.org/2000/svg">
<rect width="68" height="68" rx="20" fill="#262827"/>
<g opacity="0.84992" clip-path="url(#clip0_161_376)">
<path fill-rule="evenodd" clip-rule="evenodd" d="M54.0855 26.1615H45.173C41.0255 26.1687 37.6655 29.4371 37.658 33.4716C37.6524 37.5153 41.0161 40.7982 45.173 40.8036H54.093V41.4461C54.093 48.4996 49.807 52.6706 42.5539 52.6706H23.541C16.286 52.6706 12 48.4996 12 41.4461V26.0832C12 19.0296 16.286 14.875 23.541 14.875H42.5464C49.7995 14.875 54.0855 19.0296 54.0855 26.0832V26.1615ZM21.9751 26.145H33.8454H33.8528H33.8678C34.7565 26.1414 35.4748 25.4371 35.4711 24.5709C35.4673 23.7064 34.7414 23.0076 33.8528 23.0113H21.9751C21.0921 23.0149 20.3756 23.7119 20.3719 24.5727C20.3681 25.4371 21.0865 26.1414 21.9751 26.145Z" fill="white"/>
<path d="M41.5439 34.3956C41.984 36.3929 43.7392 37.7981 45.7431 37.7616H52.5831C53.4168 37.7616 54.0931 37.0727 54.0931 36.2211V30.9055C54.0913 30.0558 53.4168 29.3651 52.5831 29.3633H45.5821C43.3027 29.3706 41.4616 31.2582 41.4652 33.5843C41.4652 33.8567 41.4921 34.1289 41.5439 34.3956Z" fill="url(#paint0_linear_161_376)"/>
<path d="M45.6742 35.6634C46.8366 35.6634 47.7789 34.7233 47.7789 33.5636C47.7789 32.404 46.8366 31.4639 45.6742 31.4639C44.5119 31.4639 43.5696 32.404 43.5696 33.5636C43.5696 34.7233 44.5119 35.6634 45.6742 35.6634Z" fill="white"/>
</g>
<defs>
<linearGradient id="paint0_linear_161_376" x1="40.3287" y1="29.3633" x2="48.2364" y2="41.0768" gradientUnits="userSpaceOnUse">
<stop stop-color="#53C9D7"/>
<stop offset="1" stop-color="#38F839"/>
</linearGradient>
<clipPath id="clip0_161_376">
<rect width="43" height="39" fill="white" transform="translate(12 14)"/>
</clipPath>
</defs>
</svg>
