<svg width="68" height="68" viewBox="0 0 68 68" fill="none" xmlns="http://www.w3.org/2000/svg">
<rect width="68" height="68" rx="20" fill="#262827"/>
<g opacity="0.84992">
<path d="M48.6973 19.5031C46.2006 16.491 42.8315 14.3197 39.0499 13.2855C35.2684 12.2514 31.2585 12.4048 27.5677 13.7249C23.8769 15.045 20.685 17.4674 18.4278 20.6614C16.1705 23.8556 14.9579 27.6656 14.9553 31.5716V36.7537" stroke="url(#paint0_linear_161_386)" stroke-width="4.92496" stroke-linecap="round" stroke-linejoin="round"/>
<path d="M21.0117 47.7569C23.6299 50.5202 27.0206 52.437 30.7448 53.2591C34.4691 54.0812 38.3554 53.7708 41.9005 52.3681C45.4455 50.9652 48.4862 48.5347 50.6288 45.3912C52.7713 42.2476 53.9172 38.5358 53.9178 34.7362V31.2861" stroke="url(#paint1_linear_161_386)" stroke-width="4.92496" stroke-linecap="round" stroke-linejoin="round"/>
<path d="M23.5805 28.2663C23.5696 28.4741 23.5007 28.6759 23.3779 28.8511L15.3068 40.2399C15.0841 40.5528 14.7176 40.7316 14.3332 40.7115C13.9488 40.6914 13.6031 40.4754 13.4145 40.1411L6.58269 27.9743C6.38469 27.6202 6.39408 27.1862 6.61091 26.8418C6.82633 26.4959 7.21188 26.2957 7.61864 26.317L22.5216 27.0949C22.9284 27.1162 23.2908 27.3553 23.4688 27.7218C23.5538 27.8944 23.5903 28.0823 23.5805 28.2663Z" fill="white"/>
<path d="M44.8515 38.6361C44.8587 38.4309 44.9232 38.2306 45.0412 38.0557L52.8074 26.6809C53.0217 26.3684 53.3803 26.1857 53.7598 26.1989C54.1395 26.2121 54.4843 26.4192 54.6761 26.7458L61.6268 38.6326C61.8283 38.9786 61.8265 39.407 61.6185 39.7505C61.412 40.0954 61.0351 40.2995 60.6334 40.2855L45.9165 39.7736C45.5149 39.7597 45.1531 39.5299 44.9712 39.1714C44.8843 39.0026 44.8451 38.8178 44.8515 38.6361Z" fill="white"/>
</g>
<defs>
<linearGradient id="paint0_linear_161_386" x1="11.9185" y1="12.6084" x2="35.227" y2="44.6994" gradientUnits="userSpaceOnUse">
<stop stop-color="#53C9D7"/>
<stop offset="1" stop-color="#38F839"/>
</linearGradient>
<linearGradient id="paint1_linear_161_386" x1="18.0502" y1="31.2861" x2="39.3475" y2="62.079" gradientUnits="userSpaceOnUse">
<stop stop-color="#53C9D7"/>
<stop offset="1" stop-color="#38F839"/>
</linearGradient>
</defs>
</svg>
