<svg width="46" height="45" viewBox="0 0 46 45" fill="none" xmlns="http://www.w3.org/2000/svg">
<g clip-path="url(#clip0_128_1068)">
<path d="M14.7456 0H31.1987C32.0249 0.0703125 32.8247 0.439453 33.3784 1.05469C33.9497 1.66992 34.2661 2.50488 34.2573 3.34863C34.2573 5.98535 34.2573 8.62207 34.2573 11.2588C34.2573 11.7334 34.2573 12.2256 34.1079 12.6826C33.7299 13.9922 32.4643 14.9766 31.0932 15.0117C29.7046 15.0205 28.3159 15.0117 26.9272 15.0117C25.9604 16.1016 25.0112 17.2002 24.0444 18.29C23.5083 18.9316 22.4272 18.9141 21.9174 18.2549C21.1001 17.1826 20.2915 16.0928 19.4829 15.0117C17.9624 15.0029 16.4331 15.0205 14.9038 15.0029C13.5415 14.9678 12.2758 13.9922 11.8891 12.6826C11.7485 12.252 11.7397 11.7949 11.7485 11.3467C11.7485 8.64844 11.7485 5.95898 11.7485 3.26074C11.7485 2.36426 12.144 1.48535 12.8032 0.878906C13.3305 0.37793 14.0249 0.0878906 14.7456 0Z" fill="#F6F6F7"/>
<path d="M0.693359 4.05078C1.12402 2.82031 2.35449 1.90625 3.66406 1.87988C5.4834 1.87109 7.30273 1.87988 9.11328 1.87109C8.99902 2.35449 8.92871 2.84668 8.9375 3.33887C8.9375 6.17773 8.92871 9.02539 8.94629 11.8643C8.97266 13.9121 10.1416 15.8545 11.8643 16.9355C10.915 18.0254 9.96582 19.1152 9.00781 20.1963C8.48047 20.8115 7.43457 20.75 6.93359 20.126C6.10742 19.0537 5.29883 17.9551 4.47266 16.874C3.75195 16.9004 2.99609 16.8828 2.33691 16.5312C1.31738 16.0391 0.623047 15.002 0.5 13.877V4.88574C0.543945 4.60449 0.59668 4.32324 0.693359 4.05078Z" fill="url(#paint0_linear_128_1068)"/>
<path d="M36.877 1.87109C38.6699 1.87109 40.4541 1.87109 42.2471 1.87109C43.2402 1.87109 44.207 2.36328 44.8047 3.1543C45.209 3.67285 45.4375 4.31445 45.4902 4.96484V13.8506C45.3672 15.125 44.4883 16.2852 43.2666 16.6895C42.6953 16.9004 42.0801 16.8652 41.4824 16.874C40.709 17.9287 39.918 18.9658 39.1357 20.0205C38.7842 20.5215 38.0898 20.7588 37.5098 20.5391C37.1318 20.4248 36.8945 20.0908 36.6484 19.8096C35.8047 18.8516 34.9609 17.8848 34.1172 16.9268C35.4883 16.0654 36.5166 14.668 36.877 13.0859C37.0791 12.2773 37.0352 11.4424 37.0352 10.625C37.0352 8.19922 37.0352 5.76465 37.0352 3.33887C37.0615 2.84668 37 2.35449 36.877 1.87109Z" fill="url(#paint1_linear_128_1068)"/>
<path d="M22.5877 21.5766C23.7039 21.4975 24.8376 21.7524 25.8044 22.3149C27.1404 23.0883 28.1335 24.4243 28.4763 25.9272C28.7312 27.0258 28.6433 28.1948 28.2302 29.2407C27.6502 30.7348 26.3933 31.9565 24.8728 32.4926C23.906 32.8354 22.8425 32.9057 21.8406 32.6948C20.3201 32.3784 18.949 31.394 18.158 30.058C17.5603 29.0561 17.2878 27.8696 17.3933 26.7094C17.4988 25.391 18.0876 24.1254 19.0369 23.2026C19.9773 22.2534 21.2605 21.6645 22.5877 21.5766Z" fill="#F6F6F7"/>
<path d="M7.64482 24.3879C8.73467 24.2824 9.85967 24.6779 10.6331 25.4514C11.4065 26.2072 11.8196 27.3059 11.7405 28.3869C11.679 29.3713 11.1956 30.3117 10.4573 30.9533C9.64873 31.6652 8.51494 31.9904 7.45146 31.8234C6.36162 31.674 5.35967 30.9973 4.79717 30.0568C4.23467 29.1428 4.10283 27.9738 4.4456 26.9543C4.87627 25.5656 6.19463 24.5109 7.64482 24.3879Z" fill="#F6F6F7"/>
<path d="M37.6243 24.3999C38.635 24.3032 39.6721 24.6196 40.4368 25.2876C41.2542 25.9819 41.7463 27.0542 41.7463 28.1352C41.7551 29.2602 41.219 30.3677 40.3401 31.062C39.5051 31.7387 38.3713 32.02 37.3167 31.8179C36.2532 31.6245 35.2864 30.9477 34.7503 30.0073C34.2141 29.0845 34.0999 27.9331 34.4514 26.9311C34.8997 25.56 36.1917 24.5229 37.6243 24.3999Z" fill="#F6F6F7"/>
<path d="M2.57422 34.7785C3.46191 34.1105 4.57812 33.7414 5.68555 33.7502C7.24121 33.7502 8.78809 33.7502 10.3438 33.7502C11.2754 33.7502 12.207 34.0138 13.0068 34.4972C12.1191 35.1828 11.3633 36.0441 10.8271 37.0373C10.124 38.3205 9.8252 39.797 9.87793 41.2472C7.22363 41.2472 4.56934 41.2472 1.90625 41.2472C1.21191 41.256 0.59668 40.6847 0.5 40.008V38.6281C0.587891 37.1252 1.35254 35.675 2.57422 34.7785Z" fill="#F6F6F7"/>
<path d="M32.9922 34.4972C33.792 34.0138 34.7236 33.7501 35.6553 33.7501C37.2109 33.7501 38.7578 33.7501 40.3047 33.7501C41.667 33.7413 43.0293 34.295 43.9873 35.2618C44.8838 36.1495 45.4199 37.38 45.499 38.628V39.9903C45.4287 40.4474 45.1562 40.8692 44.7432 41.089C44.3916 41.2999 43.9609 41.2472 43.5654 41.256C41.0869 41.256 38.6084 41.256 36.1299 41.256C36.1387 40.5089 36.1035 39.7618 35.9277 39.0323C35.5234 37.2306 34.46 35.6046 32.9922 34.4972Z" fill="#F6F6F7"/>
<path d="M16.2493 35.8763C17.1809 35.5424 18.1741 35.6302 19.1409 35.6215C22.1292 35.6215 25.1174 35.6215 28.1057 35.6215C29.1868 35.6127 30.2678 35.9467 31.1467 36.5795C32.1663 37.3002 32.9045 38.4076 33.177 39.6293C33.3616 40.3763 33.3 41.1498 33.3088 41.9144C33.3 42.5033 33.3176 43.0834 33.3 43.6722C33.2825 44.3402 32.72 44.9027 32.0696 44.9906H13.9465C13.261 44.9027 12.6721 44.2875 12.6897 43.5843C12.6897 42.556 12.6809 41.5365 12.6985 40.5082C12.7776 38.434 14.2629 36.5004 16.2493 35.8763Z" fill="#F6F6F7"/>
</g>
<defs>
<linearGradient id="paint0_linear_128_1068" x1="6.18213" y1="1.87109" x2="6.18213" y2="20.6272" gradientUnits="userSpaceOnUse">
<stop stop-color="#8AF1FF"/>
<stop offset="1" stop-color="#3FF946"/>
</linearGradient>
<linearGradient id="paint1_linear_128_1068" x1="39.8037" y1="1.87109" x2="39.8037" y2="20.6212" gradientUnits="userSpaceOnUse">
<stop stop-color="#8AF1FF"/>
<stop offset="1" stop-color="#3FF946"/>
</linearGradient>
<clipPath id="clip0_128_1068">
<rect width="45" height="45" fill="white" transform="translate(0.5)"/>
</clipPath>
</defs>
</svg>
