<svg width="83" height="72" viewBox="0 0 83 72" fill="none" xmlns="http://www.w3.org/2000/svg">
<rect width="83" height="72" fill="transparent"/>
<circle cx="40.5" cy="35.5" r="128" stroke="#353535"/>
<mask id="mask0_0_1" style="mask-type:luminance" maskUnits="userSpaceOnUse" x="0" y="0" width="83" height="72">
<path d="M82.1624 0H0V72H82.1624V0Z" fill="white"/>
</mask>
<g mask="url(#mask0_0_1)">
<path d="M62.0593 21.9277C60.5547 21.0644 58.6308 21.0644 56.9288 21.9277L44.9412 29.0315L36.8014 33.5454L25.0357 40.6245C23.5311 41.4878 21.6071 41.4878 19.9052 40.6245L10.7048 35.0253C9.20016 34.162 8.13952 32.4354 8.13952 30.5115V19.7571C8.13952 18.0305 9.00283 16.3285 10.7048 15.2432L19.9052 9.86604C21.4098 9.00273 23.3338 9.00273 25.0357 9.86604L34.2361 15.4652C35.7407 16.3285 36.8014 18.0551 36.8014 19.9791V27.0829L44.9412 22.347V15.0459C44.9412 13.3193 44.0778 11.6173 42.3759 10.532L25.2577 0.418966C23.7531 -0.444343 21.8291 -0.444343 20.1272 0.418966L2.58967 10.754C0.887722 11.6173 0.0244141 13.3439 0.0244141 15.0459V35.2473C0.0244141 36.9739 0.887722 38.6759 2.58967 39.7612L19.9299 49.8743C21.4345 50.7376 23.3584 50.7376 25.0604 49.8743L36.826 42.9924L44.9658 38.2566L56.7315 31.3748C58.2361 30.5115 60.1601 30.5115 61.862 31.3748L71.0624 36.7519C72.567 37.6153 73.6277 39.3419 73.6277 41.2658V52.0202C73.6277 53.7468 72.7644 55.4488 71.0624 56.5341L62.084 61.9112C60.5794 62.7746 58.6554 62.7746 56.9535 61.9112L47.7284 56.5341C46.2238 55.6708 45.1632 53.9441 45.1632 52.0202V45.1384L37.0234 49.8743V56.9781C37.0234 58.7047 37.8867 60.4066 39.5886 61.4919L56.9288 71.605C58.4334 72.4683 60.3574 72.4683 62.0593 71.605L79.3995 61.4919C80.9042 60.6286 81.9648 58.902 81.9648 56.9781V36.5546C81.9648 34.828 81.1015 33.1261 79.3995 32.0408L62.0593 21.9277Z" fill="white"/>
</g>
</svg>
