<svg width="46" height="46" viewBox="0 0 46 46" fill="none" xmlns="http://www.w3.org/2000/svg">
<rect width="46" height="46" rx="13" fill="#262827"/>
<g clip-path="url(#clip0_161_250)">
<path opacity="0.4" d="M31.6319 16.7881C35.1005 16.7881 37.9238 19.7031 37.9238 23.2857V30.4073C37.9238 33.9813 35.1076 36.889 31.6461 36.889H15.915C12.4449 36.889 9.62024 33.9755 9.62024 30.3927V23.2711C9.62024 19.6972 12.4379 16.7881 15.9008 16.7881H17.2311H31.6319Z" fill="white"/>
<path d="M24.5449 29.1578L28.6617 24.9577C29.0862 24.5236 29.0862 23.825 28.6588 23.3924C28.2315 22.9611 27.5423 22.9626 27.1177 23.3952L24.8633 25.6951V11.1068C24.8633 10.4959 24.3751 10 23.7722 10C23.1708 10 22.684 10.4959 22.684 11.1068V25.6951L20.4282 23.3952C20.0036 22.9626 19.3144 22.9611 18.887 23.3924C18.6733 23.6094 18.5658 23.8926 18.5658 24.1772C18.5658 24.4589 18.6733 24.7421 18.8842 24.9577L23.001 29.1578C23.2062 29.3663 23.4835 29.4841 23.7722 29.4841C24.0623 29.4841 24.3397 29.3663 24.5449 29.1578Z" fill="url(#paint0_linear_161_250)"/>
</g>
<defs>
<linearGradient id="paint0_linear_161_250" x1="17.6285" y1="10" x2="33.9366" y2="18.5876" gradientUnits="userSpaceOnUse">
<stop stop-color="#53C9D7"/>
<stop offset="1" stop-color="#38F839"/>
</linearGradient>
<clipPath id="clip0_161_250">
<rect width="29" height="27" fill="white" transform="translate(9 10)"/>
</clipPath>
</defs>
</svg>
