<svg width="49" height="45" viewBox="0 0 49 45" fill="none" xmlns="http://www.w3.org/2000/svg">
<g clip-path="url(#clip0_128_1036)">
<path d="M24.1063 0.057665C24.9303 -0.195144 25.8479 0.479013 25.876 1.34044C25.8853 2.90411 25.876 4.46778 25.876 6.04081C25.8947 6.68688 25.3984 7.30486 24.7617 7.42658C23.9565 7.62321 23.0951 6.95841 23.0763 6.13444C23.067 4.57077 23.0763 3.0071 23.067 1.44343C23.0482 0.806729 23.4977 0.216841 24.1063 0.057665Z" fill="url(#paint0_linear_128_1036)"/>
<path d="M13.8133 3.33594C14.2908 3.20486 14.8339 3.35467 15.1803 3.71047C16.3976 4.9277 17.6148 6.14493 18.832 7.3528C19.2159 7.69924 19.4125 8.24231 19.2908 8.74793C19.1785 9.291 18.7103 9.72171 18.1672 9.81534C17.7271 9.89025 17.259 9.7498 16.9406 9.44081C15.7047 8.20486 14.4781 6.9689 13.2421 5.74231C12.9144 5.43332 12.7271 4.97452 12.7833 4.52508C12.8395 3.96328 13.2609 3.46703 13.8133 3.33594Z" fill="url(#paint1_linear_128_1036)"/>
<path d="M34.4031 3.3366C35.0117 3.16806 35.7233 3.45832 36.0042 4.03885C36.2945 4.57255 36.1821 5.2748 35.742 5.69615C34.4967 6.94147 33.2514 8.19615 31.9967 9.44147C31.4911 9.94708 30.611 9.97517 30.0866 9.48828C29.4967 8.99203 29.4593 7.99952 30.0211 7.45645C31.2664 6.21113 32.5117 4.96581 33.757 3.71113C33.9349 3.53323 34.1596 3.40214 34.4031 3.3366Z" fill="url(#paint2_linear_128_1036)"/>
<path d="M14.0768 14.572C15.4625 13.4204 17.2416 12.7743 19.0393 12.7649C21.8202 12.7649 24.6011 12.7649 27.3727 12.7649C28.5431 12.7275 29.7228 13.0177 30.706 13.6638C31.2678 14.0196 31.736 14.5065 32.2041 14.9747C33.7303 16.5009 35.2659 18.0365 36.7921 19.5627C37.1573 19.9185 37.5225 20.3024 37.7285 20.7799C38.3371 22.0533 37.9625 23.7106 36.8483 24.5814C35.6498 25.5833 33.7303 25.4709 32.6255 24.3941C31.2865 23.0739 29.9757 21.735 28.6461 20.4147C28.3652 20.1338 27.9719 19.984 27.5787 19.984C24.0487 19.9747 20.5187 19.984 16.9888 19.984C15.4625 21.2668 13.9363 22.5496 12.4007 23.8323C11.8296 24.3192 11.2303 24.7687 10.7715 25.3679C9.46067 27.0159 9.14232 29.3848 9.95693 31.323C10.603 32.9147 11.9794 34.1788 13.6086 34.7125C13.7491 35.5646 14.0487 36.3885 14.5075 37.1189C13.7772 37.072 12.9064 37.3061 12.3071 36.7537C11.1648 35.6395 10.0506 34.4971 8.9176 33.3735C6.76405 33.3642 4.61985 33.3735 2.46629 33.3735C2.0824 33.3735 1.67041 33.411 1.30524 33.2331C0.865169 33.0177 0.58427 32.587 0.5 32.1189V16.8192C0.58427 16.1263 1.20225 15.5552 1.90449 15.5645C5.61236 15.5645 9.32022 15.5645 13.0281 15.5645C13.3652 15.2275 13.7022 14.881 14.0768 14.572Z" fill="#F6F6F7"/>
<path d="M39.6016 18.477C42.0828 18.477 44.5547 18.477 47.036 18.477C47.7195 18.4583 48.3094 19.0107 48.4405 19.6755V35.022C48.3469 35.7055 47.7383 36.2766 47.0454 36.2673C45.1727 36.2766 43.3001 36.2673 41.4274 36.2673C41.2401 36.2766 41.0061 36.2205 40.8656 36.3796C37.7476 39.0014 34.6203 41.6137 31.5023 44.2355C30.7345 44.9002 29.6484 45.1624 28.6652 44.9096C27.4574 44.6193 26.4929 43.5707 26.315 42.3441C26.1465 41.3984 26.4836 40.4152 27.1016 39.6943C26.4836 40.1811 25.8937 40.7055 25.2851 41.2017C24.5828 41.8104 23.609 42.0819 22.7008 41.9227C21.4742 41.7355 20.4349 40.7523 20.154 39.5538C19.8825 38.4864 20.2289 37.3066 21.0154 36.5482C20.3319 36.9976 19.4892 37.2317 18.6652 37.0913C17.3918 36.904 16.3057 35.8647 16.0622 34.5913C15.8469 33.5426 16.212 32.4096 16.9798 31.6793C16.1746 32.2411 15.1259 32.4564 14.1802 32.1568C12.9162 31.7916 11.9705 30.5744 11.933 29.2635C11.8862 28.2804 12.3356 27.2972 13.1034 26.6793C14.6577 25.3965 16.1746 24.0763 17.7383 22.8122C20.8469 22.8029 23.9555 22.8029 27.0641 22.8122C28.0379 23.8047 29.0304 24.7879 30.0135 25.771C30.4255 26.1737 30.8094 26.6044 31.2776 26.9414C32.3544 27.7467 33.712 28.1587 35.0604 28.1025C36.3338 28.065 37.5791 27.5969 38.5716 26.801C39.7701 25.8459 40.5847 24.404 40.772 22.8778C40.978 21.3235 40.5379 19.7223 39.6016 18.477Z" fill="#F6F6F7"/>
</g>
<defs>
<linearGradient id="paint0_linear_128_1036" x1="24.4733" y1="0.00390625" x2="24.4733" y2="7.46137" gradientUnits="userSpaceOnUse">
<stop stop-color="#8AF1FF"/>
<stop offset="1" stop-color="#3FF946"/>
</linearGradient>
<linearGradient id="paint1_linear_128_1036" x1="16.0501" y1="3.28906" x2="16.0501" y2="9.83514" gradientUnits="userSpaceOnUse">
<stop stop-color="#8AF1FF"/>
<stop offset="1" stop-color="#3FF946"/>
</linearGradient>
<linearGradient id="paint2_linear_128_1036" x1="32.893" y1="3.28906" x2="32.893" y2="9.8376" gradientUnits="userSpaceOnUse">
<stop stop-color="#8AF1FF"/>
<stop offset="1" stop-color="#3FF946"/>
</linearGradient>
<clipPath id="clip0_128_1036">
<rect width="47.9401" height="45" fill="white" transform="translate(0.5)"/>
</clipPath>
</defs>
</svg>
