<svg width="48" height="45" viewBox="0 0 48 45" fill="none" xmlns="http://www.w3.org/2000/svg">
<g clip-path="url(#clip0_128_1083)">
<path d="M11.945 0.1141C13.1475 -0.0335796 14.3711 0.00861453 15.5842 -0.001934C21.8817 -0.001934 28.1686 -0.001934 34.4661 -0.001934C36.0483 0.00861453 37.6412 -0.0652251 39.2129 0.198488C41.1116 0.493847 42.9998 1.2006 44.4661 2.48752C45.8585 3.7006 46.7867 5.38836 47.2614 7.17106C47.6306 8.55292 47.7572 9.99807 47.7572 11.4221C47.7572 16.2744 47.7572 21.1268 47.7572 25.9896C47.7889 27.8462 47.7045 29.7238 47.1454 31.496C46.5758 33.3841 45.4365 35.1352 43.8121 36.2744C41.7762 37.7196 39.2446 38.2154 36.7867 38.247C34.0125 38.2576 31.2277 38.247 28.4534 38.247C27.4302 38.2681 26.4703 37.4981 26.2699 36.496C26.1749 36.0951 26.2488 35.6837 26.291 35.2723C26.6074 32.4031 26.0273 29.439 24.677 26.8863C23.0842 23.8377 20.3732 21.4116 17.177 20.1457C13.6538 18.7322 9.57156 18.7639 6.07999 20.2618C5.46818 20.5571 4.74033 20.6204 4.10742 20.3462C3.29518 20.0086 2.72556 19.1542 2.74666 18.2681C2.74666 15.8419 2.74666 13.4052 2.74666 10.9791C2.77831 8.66895 3.20025 6.27444 4.46607 4.30186C5.49983 2.65629 7.13485 1.42212 8.95974 0.778657C9.91966 0.451653 10.9323 0.230134 11.945 0.1141ZM13.4007 9.67106C12.81 9.89258 12.3669 10.4622 12.3247 11.0951C12.272 11.6542 12.5251 12.2238 12.9576 12.5719C15.2467 14.3968 17.5251 16.2322 19.8142 18.0571C20.9429 18.9538 22.2825 19.5761 23.7066 19.8293C25.7108 20.1985 27.8416 19.8293 29.6138 18.8061C30.4049 18.363 31.0905 17.7512 31.7973 17.1922C33.5483 15.7787 35.3205 14.3863 37.0716 12.9728C37.3986 12.709 37.7678 12.4664 37.9787 12.0867C38.3374 11.4538 38.2424 10.5993 37.7256 10.0825C37.1665 9.48119 36.1433 9.3968 35.4893 9.91368C33.2213 11.728 30.9534 13.5424 28.6855 15.3567C28.0104 15.9158 27.1981 16.3061 26.3437 16.4854C24.8353 16.8019 23.2002 16.4327 21.9872 15.4833C19.677 13.6373 17.3775 11.8019 15.0673 9.95587C14.6032 9.56558 13.9492 9.46009 13.4007 9.67106Z" fill="#F6F6F7"/>
<path d="M10.3631 22.5942C12.631 22.3094 14.9939 22.7314 17.0086 23.8179C19.6774 25.2208 21.7238 27.7314 22.5572 30.6322C23.285 33.1322 23.1057 35.8748 22.0508 38.2588C21.0065 40.685 19.0656 42.6997 16.6922 43.8601C14.3082 45.0309 11.5023 45.3158 8.92846 44.6407C6.33352 43.9761 3.99175 42.3516 2.47276 40.1259C0.85884 37.8052 0.183734 34.8727 0.616224 32.0879C0.974874 29.6196 2.18795 27.2989 4.0023 25.59C5.74281 23.955 8.00019 22.8896 10.3631 22.5942ZM7.06137 29.166C6.25968 29.1871 5.57403 29.936 5.61622 30.7377C5.61622 31.5394 6.34407 32.2461 7.14576 32.225C8.62255 32.2356 10.0888 32.225 11.5656 32.225C11.8926 32.225 12.2407 32.1828 12.5255 32.0141C13.1479 31.666 13.4432 30.8643 13.2006 30.1892C12.9896 29.5668 12.3462 29.1343 11.6922 29.1554C10.1521 29.166 8.60146 29.1449 7.06137 29.166ZM7.06137 35.2947C6.57614 35.3158 6.12255 35.5795 5.85884 35.9909C5.50019 36.5183 5.53184 37.2567 5.92213 37.7525C6.22804 38.1639 6.73437 38.3748 7.2407 38.3537C10.0888 38.3537 12.9369 38.3537 15.7956 38.3537C16.2069 38.3537 16.6394 38.3854 17.0192 38.185C17.6943 37.8685 18.0424 37.0141 17.7892 36.3179C17.5888 35.7061 16.9664 35.2736 16.323 35.2841C13.2428 35.2947 10.1521 35.2841 7.06137 35.2947Z" fill="url(#paint0_linear_128_1083)"/>
</g>
<defs>
<linearGradient id="paint0_linear_128_1083" x1="11.7427" y1="22.5078" x2="11.7427" y2="45" gradientUnits="userSpaceOnUse">
<stop stop-color="#8AF1FF"/>
<stop offset="1" stop-color="#3FF946"/>
</linearGradient>
<clipPath id="clip0_128_1083">
<rect width="47.2574" height="45" fill="white" transform="translate(0.5)"/>
</clipPath>
</defs>
</svg>
