<svg width="214" height="52" viewBox="0 0 214 52" fill="none" xmlns="http://www.w3.org/2000/svg">
<circle cx="24.905" cy="25.9132" r="12.3502" stroke="#5CA8FF" stroke-width="6.44969"/>
<circle opacity="0.3" cx="39.5137" cy="25.9132" r="12.3502" stroke="#5CA8FF" stroke-width="6.44969"/>
<path d="M65.0143 33.5152C67.2156 31.7472 68.9403 30.2999 70.1883 29.1732C71.4363 28.0292 72.485 26.8419 73.3343 25.6112C74.201 24.3632 74.6343 23.1412 74.6343 21.9452C74.6343 20.8186 74.357 19.9346 73.8023 19.2932C73.265 18.6346 72.3896 18.3052 71.1763 18.3052C69.9976 18.3052 69.079 18.6779 68.4203 19.4232C67.779 20.1512 67.4323 21.1306 67.3803 22.3612H65.0923C65.1616 20.4199 65.751 18.9206 66.8603 17.8632C67.9696 16.8059 69.3996 16.2772 71.1503 16.2772C72.9356 16.2772 74.3483 16.7712 75.3883 17.7592C76.4456 18.7472 76.9743 20.1079 76.9743 21.8412C76.9743 23.2799 76.541 24.6839 75.6743 26.0532C74.825 27.4052 73.8543 28.6012 72.7623 29.6412C71.6703 30.6639 70.275 31.8599 68.5763 33.2292H77.5203V35.2052H65.0143V33.5152ZM80.2814 28.2372C80.2814 26.7812 80.576 25.5072 81.1654 24.4152C81.7547 23.3059 82.5607 22.4479 83.5834 21.8412C84.6234 21.2346 85.776 20.9312 87.0414 20.9312C88.2894 20.9312 89.3727 21.1999 90.2914 21.7372C91.21 22.2746 91.8947 22.9506 92.3454 23.7652V21.1652H94.7374V35.4132H92.3454V32.7612C91.8774 33.5932 91.1754 34.2866 90.2394 34.8412C89.3207 35.3786 88.246 35.6472 87.0154 35.6472C85.75 35.6472 84.606 35.3352 83.5834 34.7112C82.5607 34.0872 81.7547 33.2119 81.1654 32.0852C80.576 30.9586 80.2814 29.6759 80.2814 28.2372ZM92.3454 28.2632C92.3454 27.1886 92.1287 26.2526 91.6954 25.4552C91.262 24.6579 90.6727 24.0512 89.9274 23.6352C89.1994 23.2019 88.3934 22.9852 87.5094 22.9852C86.6254 22.9852 85.8194 23.1932 85.0914 23.6092C84.3634 24.0252 83.7827 24.6319 83.3494 25.4292C82.916 26.2266 82.6994 27.1626 82.6994 28.2372C82.6994 29.3292 82.916 30.2826 83.3494 31.0972C83.7827 31.8946 84.3634 32.5099 85.0914 32.9432C85.8194 33.3592 86.6254 33.5672 87.5094 33.5672C88.3934 33.5672 89.1994 33.3592 89.9274 32.9432C90.6727 32.5099 91.262 31.8946 91.6954 31.0972C92.1287 30.2826 92.3454 29.3379 92.3454 28.2632ZM98.3717 28.2632C98.3717 26.7899 98.6663 25.5072 99.2557 24.4152C99.845 23.3059 100.66 22.4479 101.7 21.8412C102.757 21.2346 103.962 20.9312 105.314 20.9312C107.064 20.9312 108.503 21.3559 109.63 22.2052C110.774 23.0546 111.528 24.2332 111.892 25.7412H109.344C109.101 24.8746 108.624 24.1899 107.914 23.6872C107.22 23.1846 106.354 22.9332 105.314 22.9332C103.962 22.9332 102.87 23.4012 102.038 24.3372C101.206 25.2559 100.79 26.5646 100.79 28.2632C100.79 29.9792 101.206 31.3052 102.038 32.2412C102.87 33.1772 103.962 33.6452 105.314 33.6452C106.354 33.6452 107.22 33.4026 107.914 32.9172C108.607 32.4319 109.084 31.7386 109.344 30.8372H111.892C111.51 32.2932 110.748 33.4632 109.604 34.3472C108.46 35.2139 107.03 35.6472 105.314 35.6472C103.962 35.6472 102.757 35.3439 101.7 34.7372C100.66 34.1306 99.845 33.2726 99.2557 32.1632C98.6663 31.0539 98.3717 29.7539 98.3717 28.2632ZM114.685 28.2632C114.685 26.7899 114.979 25.5072 115.569 24.4152C116.158 23.3059 116.973 22.4479 118.013 21.8412C119.07 21.2346 120.275 20.9312 121.627 20.9312C123.377 20.9312 124.816 21.3559 125.943 22.2052C127.087 23.0546 127.841 24.2332 128.205 25.7412H125.657C125.414 24.8746 124.937 24.1899 124.227 23.6872C123.533 23.1846 122.667 22.9332 121.627 22.9332C120.275 22.9332 119.183 23.4012 118.351 24.3372C117.519 25.2559 117.103 26.5646 117.103 28.2632C117.103 29.9792 117.519 31.3052 118.351 32.2412C119.183 33.1772 120.275 33.6452 121.627 33.6452C122.667 33.6452 123.533 33.4026 124.227 32.9172C124.92 32.4319 125.397 31.7386 125.657 30.8372H128.205C127.823 32.2932 127.061 33.4632 125.917 34.3472C124.773 35.2139 123.343 35.6472 121.627 35.6472C120.275 35.6472 119.07 35.3439 118.013 34.7372C116.973 34.1306 116.158 33.2726 115.569 32.1632C114.979 31.0539 114.685 29.7539 114.685 28.2632ZM144.882 27.7432C144.882 28.1939 144.856 28.6706 144.804 29.1732H133.416C133.502 30.5772 133.979 31.6779 134.846 32.4752C135.73 33.2552 136.796 33.6452 138.044 33.6452C139.066 33.6452 139.916 33.4112 140.592 32.9432C141.285 32.4579 141.77 31.8166 142.048 31.0192H144.596C144.214 32.3886 143.452 33.5066 142.308 34.3732C141.164 35.2226 139.742 35.6472 138.044 35.6472C136.692 35.6472 135.478 35.3439 134.404 34.7372C133.346 34.1306 132.514 33.2726 131.908 32.1632C131.301 31.0366 130.998 29.7366 130.998 28.2632C130.998 26.7899 131.292 25.4986 131.882 24.3892C132.471 23.2799 133.294 22.4306 134.352 21.8412C135.426 21.2346 136.657 20.9312 138.044 20.9312C139.396 20.9312 140.592 21.2259 141.632 21.8152C142.672 22.4046 143.469 23.2192 144.024 24.2592C144.596 25.2819 144.882 26.4432 144.882 27.7432ZM142.438 27.2492C142.438 26.3479 142.238 25.5766 141.84 24.9352C141.441 24.2766 140.895 23.7826 140.202 23.4532C139.526 23.1066 138.772 22.9332 137.94 22.9332C136.744 22.9332 135.721 23.3146 134.872 24.0772C134.04 24.8399 133.563 25.8972 133.442 27.2492H142.438ZM153.569 35.6472C152.477 35.6472 151.497 35.4652 150.631 35.1012C149.764 34.7199 149.079 34.1999 148.577 33.5412C148.074 32.8652 147.797 32.0939 147.745 31.2272H150.189C150.258 31.9379 150.587 32.5186 151.177 32.9692C151.783 33.4199 152.572 33.6452 153.543 33.6452C154.444 33.6452 155.155 33.4459 155.675 33.0472C156.195 32.6486 156.455 32.1459 156.455 31.5392C156.455 30.9152 156.177 30.4559 155.623 30.1612C155.068 29.8492 154.21 29.5459 153.049 29.2512C151.991 28.9739 151.125 28.6966 150.449 28.4192C149.79 28.1246 149.218 27.6999 148.733 27.1452C148.265 26.5732 148.031 25.8279 148.031 24.9092C148.031 24.1812 148.247 23.5139 148.681 22.9072C149.114 22.3006 149.729 21.8239 150.527 21.4772C151.324 21.1132 152.234 20.9312 153.257 20.9312C154.834 20.9312 156.108 21.3299 157.079 22.1272C158.049 22.9246 158.569 24.0166 158.639 25.4032H156.273C156.221 24.6579 155.917 24.0599 155.363 23.6092C154.825 23.1586 154.097 22.9332 153.179 22.9332C152.329 22.9332 151.653 23.1152 151.151 23.4792C150.648 23.8432 150.397 24.3199 150.397 24.9092C150.397 25.3772 150.544 25.7672 150.839 26.0792C151.151 26.3739 151.532 26.6166 151.983 26.8072C152.451 26.9806 153.092 27.1799 153.907 27.4052C154.929 27.6826 155.761 27.9599 156.403 28.2372C157.044 28.4972 157.59 28.8959 158.041 29.4332C158.509 29.9706 158.751 30.6726 158.769 31.5392C158.769 32.3192 158.552 33.0212 158.119 33.6452C157.685 34.2692 157.07 34.7632 156.273 35.1272C155.493 35.4739 154.591 35.6472 153.569 35.6472ZM167.673 35.6472C166.581 35.6472 165.601 35.4652 164.735 35.1012C163.868 34.7199 163.183 34.1999 162.681 33.5412C162.178 32.8652 161.901 32.0939 161.849 31.2272H164.293C164.362 31.9379 164.691 32.5186 165.281 32.9692C165.887 33.4199 166.676 33.6452 167.647 33.6452C168.548 33.6452 169.259 33.4459 169.779 33.0472C170.299 32.6486 170.559 32.1459 170.559 31.5392C170.559 30.9152 170.281 30.4559 169.727 30.1612C169.172 29.8492 168.314 29.5459 167.153 29.2512C166.095 28.9739 165.229 28.6966 164.553 28.4192C163.894 28.1246 163.322 27.6999 162.837 27.1452C162.369 26.5732 162.135 25.8279 162.135 24.9092C162.135 24.1812 162.351 23.5139 162.785 22.9072C163.218 22.3006 163.833 21.8239 164.631 21.4772C165.428 21.1132 166.338 20.9312 167.361 20.9312C168.938 20.9312 170.212 21.3299 171.183 22.1272C172.153 22.9246 172.673 24.0166 172.743 25.4032H170.377C170.325 24.6579 170.021 24.0599 169.467 23.6092C168.929 23.1586 168.201 22.9332 167.283 22.9332C166.433 22.9332 165.757 23.1152 165.255 23.4792C164.752 23.8432 164.501 24.3199 164.501 24.9092C164.501 25.3772 164.648 25.7672 164.943 26.0792C165.255 26.3739 165.636 26.6166 166.087 26.8072C166.555 26.9806 167.196 27.1799 168.011 27.4052C169.033 27.6826 169.865 27.9599 170.507 28.2372C171.148 28.4972 171.694 28.8959 172.145 29.4332C172.613 29.9706 172.855 30.6726 172.873 31.5392C172.873 32.3192 172.656 33.0212 172.223 33.6452C171.789 34.2692 171.174 34.7632 170.377 35.1272C169.597 35.4739 168.695 35.6472 167.673 35.6472ZM177.487 35.5692C177.036 35.5692 176.655 35.4132 176.343 35.1012C176.031 34.7892 175.875 34.4079 175.875 33.9572C175.875 33.5066 176.031 33.1252 176.343 32.8132C176.655 32.5012 177.036 32.3452 177.487 32.3452C177.92 32.3452 178.284 32.5012 178.579 32.8132C178.891 33.1252 179.047 33.5066 179.047 33.9572C179.047 34.4079 178.891 34.7892 178.579 35.1012C178.284 35.4132 177.92 35.5692 177.487 35.5692ZM183.934 18.8512C183.483 18.8512 183.102 18.6952 182.79 18.3832C182.478 18.0712 182.322 17.6899 182.322 17.2392C182.322 16.7886 182.478 16.4072 182.79 16.0952C183.102 15.7832 183.483 15.6272 183.934 15.6272C184.367 15.6272 184.731 15.7832 185.026 16.0952C185.338 16.4072 185.494 16.7886 185.494 17.2392C185.494 17.6899 185.338 18.0712 185.026 18.3832C184.731 18.6952 184.367 18.8512 183.934 18.8512ZM185.078 21.1652V35.4132H182.712V21.1652H185.078ZM195.844 35.6472C194.509 35.6472 193.296 35.3439 192.204 34.7372C191.129 34.1306 190.28 33.2726 189.656 32.1632C189.049 31.0366 188.746 29.7366 188.746 28.2632C188.746 26.8072 189.058 25.5246 189.682 24.4152C190.323 23.2886 191.19 22.4306 192.282 21.8412C193.374 21.2346 194.596 20.9312 195.948 20.9312C197.3 20.9312 198.522 21.2346 199.614 21.8412C200.706 22.4306 201.564 23.2799 202.188 24.3892C202.829 25.4986 203.15 26.7899 203.15 28.2632C203.15 29.7366 202.821 31.0366 202.162 32.1632C201.521 33.2726 200.645 34.1306 199.536 34.7372C198.427 35.3439 197.196 35.6472 195.844 35.6472ZM195.844 33.5672C196.693 33.5672 197.491 33.3679 198.236 32.9692C198.981 32.5706 199.579 31.9726 200.03 31.1752C200.498 30.3779 200.732 29.4072 200.732 28.2632C200.732 27.1192 200.507 26.1486 200.056 25.3512C199.605 24.5539 199.016 23.9646 198.288 23.5832C197.56 23.1846 196.771 22.9852 195.922 22.9852C195.055 22.9852 194.258 23.1846 193.53 23.5832C192.819 23.9646 192.247 24.5539 191.814 25.3512C191.381 26.1486 191.164 27.1192 191.164 28.2632C191.164 29.4246 191.372 30.4039 191.788 31.2012C192.221 31.9986 192.793 32.5966 193.504 32.9952C194.215 33.3766 194.995 33.5672 195.844 33.5672Z" fill="white"/>
</svg>
