<svg width="235" height="24" viewBox="0 0 235 24" fill="none" xmlns="http://www.w3.org/2000/svg">
<g id="Logo">
<path id="Vector" d="M13.0857 2.86455V4.57673V7.44128H15.4096H19.8264V16.634H15.4096H13.0857V19.4986V21.1289H2.32658V2.86128H13.0857M15.4123 0H0V24H15.4096V19.5051H22.153V4.58H15.4096V0H15.4123Z" fill="white"/>
<g id="Group">
<path id="Vector_2" d="M35.374 8.26085V19.5095H31.4353V8.26085H27.4062V4.39453H39.3844V8.26085H35.374Z" fill="white"/>
<path id="Vector_3" d="M49.458 19.5095V13.7739H45.1262V19.5095H41.1875V4.39453H45.1262V9.90756H49.458V4.39453H53.3967V19.5095H49.458Z" fill="white"/>
<path id="Vector_4" d="M56.0273 4.39453H66.6324V8.01859H59.9661V10.1073H65.6683V13.5775H59.9661V15.8855H66.7572V19.5095H56.0273V4.39453Z" fill="white"/>
<path id="Vector_5" d="M78.7678 4.86595C79.2857 5.18024 79.6947 5.62547 79.9975 6.1951C80.3003 6.76801 80.4517 7.40313 80.4517 8.10699C80.4517 9.96649 79.7691 11.1385 78.4013 11.623V11.7114C79.9577 12.1501 80.7358 13.4105 80.7358 15.4893C80.7358 16.2816 80.5791 16.9789 80.2631 17.5878C79.947 18.1967 79.5168 18.6682 78.9697 19.0054C78.4225 19.3426 77.8223 19.5095 77.1689 19.5095H68.8984V4.39453H77.0627C77.6842 4.39453 78.2499 4.55167 78.7678 4.86595ZM72.8398 10.2808H75.5488C75.8091 10.2808 76.0269 10.1662 76.1995 9.9403C76.3722 9.71441 76.4572 9.43286 76.4572 9.09566V8.87632C76.4572 8.55549 76.3669 8.2805 76.1889 8.05133C76.011 7.82544 75.7958 7.71086 75.5462 7.71086H72.8372V10.2808H72.8398ZM72.8398 15.9935H75.833C76.0933 15.9935 76.3111 15.8789 76.4837 15.653C76.6564 15.4271 76.7413 15.1456 76.7413 14.8084V14.589C76.7413 14.2518 76.6537 13.9703 76.4837 13.7444C76.3111 13.5185 76.0933 13.4039 75.833 13.4039H72.8398V15.9935Z" fill="white"/>
<path id="Vector_6" d="M82.0898 4.39453H86.0286V15.6432H92.3204V19.5095H82.0898V4.39453Z" fill="white"/>
<path id="Vector_7" d="M103.994 6.12527C105.147 7.4577 105.723 9.39904 105.723 11.946C105.723 14.493 105.147 16.4344 103.994 17.7668C102.841 19.0992 101.208 19.7671 99.0937 19.7671C96.9796 19.7671 95.3489 19.1058 94.2015 17.7799C93.0541 16.454 92.4805 14.5094 92.4805 11.946C92.4805 9.38267 93.0541 7.43805 94.2015 6.11218C95.3489 4.7863 96.9796 4.125 99.0937 4.125C101.208 4.125 102.841 4.79285 103.994 6.12527ZM97.1682 8.69518C96.7273 9.32374 96.5095 10.1749 96.5095 11.2422V12.6466C96.5095 13.7171 96.7299 14.565 97.1682 15.1936C97.609 15.8222 98.2491 16.1397 99.0937 16.1397C99.9383 16.1397 100.581 15.8254 101.027 15.1936C101.473 14.565 101.696 13.7139 101.696 12.6466V11.2422C101.696 10.1716 101.473 9.32374 101.027 8.69518C100.581 8.06662 99.9356 7.74906 99.0937 7.74906C98.2491 7.74906 97.6064 8.06662 97.1682 8.69518Z" fill="white"/>
<path id="Vector_8" d="M117.324 5.80772C118.381 6.92735 118.91 8.52822 118.91 10.6071H115.149C115.149 9.72969 114.96 9.03238 114.588 8.5184C114.214 8.00442 113.683 7.74906 112.992 7.74906C112.195 7.74906 111.611 8.0568 111.237 8.67226C110.862 9.28773 110.676 10.1455 110.676 11.2422V12.6466C110.676 13.7302 110.862 14.5847 111.237 15.2067C111.611 15.8287 112.185 16.1397 112.958 16.1397C113.717 16.1397 114.294 15.8975 114.687 15.4162C115.08 14.9317 115.274 14.2508 115.274 13.3734H118.91C118.91 15.4391 118.394 17.0204 117.366 18.1204C116.339 19.2203 114.886 19.7671 113.008 19.7671C110.915 19.7671 109.332 19.109 108.257 17.7897C107.181 16.4704 106.645 14.5225 106.645 11.946C106.645 9.36958 107.181 7.42169 108.257 6.10236C109.332 4.78303 110.915 4.125 113.008 4.125C114.827 4.12827 116.264 4.68809 117.324 5.80772Z" fill="white"/>
<path id="Vector_9" d="M128.657 4.39453H133.541L129.137 10.6114L133.628 19.5095H128.978L126.428 13.9736L124.29 16.1277V19.5095H120.352V4.39453H124.29V10.8537L128.657 4.39453Z" fill="white"/>
<path id="Vector_10" d="M144.075 5.80772C145.132 6.92735 145.661 8.52822 145.661 10.6071H141.9C141.9 9.72969 141.711 9.03238 141.34 8.5184C140.965 8.00442 140.434 7.74906 139.743 7.74906C138.947 7.74906 138.362 8.0568 137.988 8.67226C137.613 9.28773 137.427 10.1455 137.427 11.2422V12.6466C137.427 13.7302 137.613 14.5847 137.988 15.2067C138.362 15.8287 138.936 16.1397 139.709 16.1397C140.468 16.1397 141.045 15.8975 141.438 15.4162C141.831 14.9317 142.025 14.2508 142.025 13.3734H145.661C145.661 15.4391 145.146 17.0204 144.118 18.1204C143.09 19.2203 141.637 19.7671 139.759 19.7671C137.666 19.7671 136.084 19.109 135.011 17.7897C133.938 16.4704 133.398 14.5225 133.398 11.946C133.398 9.36958 133.935 7.42169 135.011 6.10236C136.086 4.78303 137.669 4.125 139.759 4.125C141.581 4.12827 143.018 4.68809 144.075 5.80772Z" fill="white"/>
<path id="Vector_11" d="M155.38 19.5095V13.7739H151.048V19.5095H147.109V4.39453H151.048V9.90756H155.38V4.39453H159.319V19.5095H155.38Z" fill="white"/>
<path id="Vector_12" d="M169.49 19.5095L168.972 17.3783H164.677L164.159 19.5095H160.133L164.605 4.39453H169.187L173.659 19.5095H169.49ZM165.498 13.9932H168.154L166.871 8.61115H166.799L165.498 13.9932Z" fill="white"/>
<path id="Vector_13" d="M174.641 19.5095V4.39453H178.579V19.5095H174.641Z" fill="white"/>
<path id="Vector_14" d="M189.486 19.5095L184.336 12.173V19.5095H180.719V4.39453H184.158L189.308 11.8424V4.39453H192.925V19.5095H189.486Z" fill="white"/>
<path id="Vector_15" d="M194.891 4.39453H205.496V8.01859H198.829V10.1073H204.532V13.5775H198.829V15.8855H205.621V19.5095H194.891V4.39453Z" fill="white"/>
<path id="Vector_16" d="M218.796 11.5346C218.392 12.281 217.802 12.831 217.032 13.1813L219.76 19.5095H215.34L213.165 13.9965H211.704V19.5095H207.766V4.39453H215.269C216.148 4.39453 216.899 4.60405 217.523 5.01982C218.148 5.43886 218.618 6.00195 218.931 6.71236C219.247 7.42277 219.404 8.19538 219.404 9.03019C219.401 9.95012 219.199 10.7849 218.796 11.5346ZM215.069 8.23794C214.854 7.97276 214.594 7.84181 214.286 7.84181H211.702V10.6311H214.286C214.594 10.6311 214.857 10.4968 215.069 10.2251C215.282 9.95339 215.391 9.61947 215.391 9.22661C215.391 8.83049 215.285 8.50311 215.069 8.23794Z" fill="white"/>
<path id="Vector_17" d="M229.84 19.5095L229.322 17.3783H225.027L224.509 19.5095H220.48L224.953 4.39453H229.534L234.007 19.5095H229.84ZM225.848 13.9932H228.504L227.221 8.61115H227.149L225.848 13.9932Z" fill="white"/>
</g>
</g>
</svg>
